#!OML:ASF F:\VICON\USERDATA\INSTALL\rory3\rory3.ASF
:FULLY-SPECIFIED
:DEGREES
506
root 2.72977 17.88 7.5187 -362.902 -2.34281 -360.082
lowerback 13.1885 0.606937 -1.15328
upperback 1.69956 0.610415 -0.433146
thorax -5.61233 0.319062 0.0878917
lowerneck -15.0502 -8.0018 -13.6241
upperneck 32.7639 -12.073 11.9513
head 15.7694 -5.35735 5.21108
rclavicle 1.83876e-014 0
rhumerus -37.9923 -12.5706 -77.055
rradius 37.6266
rwrist -0.0609742
rhand -18.8859 7.50584
rfingers 7.12502
rthumb 7.41528 -22.3442
lclavicle 1.83876e-014 0
lhumerus -29.8701 -1.68791 88.4862
lradius 33.9813
lwrist -6.12073
lhand -20.2809 27.0394
lfingers 7.12502
lthumb 6.06858 56.9325
rfemur -11.2002 3.67069 18.9599
rtibia 31.4291
rfoot -13.5796 1.62316
rtoes -0.494523
lfemur -13.371 -7.62237 -18.0193
ltibia 40.0217
lfoot -15.9413 -10.3101
ltoes -15.0617
507
root 2.69018 17.8663 7.54832 -362.886 -2.62237 -359.958
lowerback 13.0767 0.650186 -1.09645
upperback 1.71188 0.676527 -0.449903
thorax -5.53723 0.349845 0.0277753
lowerneck -15.0085 -8.03905 -13.6859
upperneck 32.6871 -12.0962 11.9213
head 15.7288 -5.37995 5.19997
rclavicle 1.34925e-014 -1.59028e-015
rhumerus -37.9886 -12.7795 -76.8601
rradius 37.8475
rwrist -0.405852
rhand -19.0242 7.57092
rfingers 7.12502
rthumb 7.28182 -22.2838
lclavicle 1.34925e-014 -1.59028e-015
lhumerus -29.7941 -1.6555 88.8126
lradius 33.9538
lwrist -6.44547
lhand -20.6628 26.7438
lfingers 7.12502
lthumb 5.69992 56.6472
rfemur -11.4201 3.86328 18.9931
rtibia 32.0054
rfoot -13.9563 1.63276
rtoes 0.342038
lfemur -13.5802 -6.66818 -19.0302
ltibia 39.7748
lfoot -15.7294 -10.9798
ltoes -13.1847
508
root 2.64862 17.8496 7.57444 -362.875 -2.9785 -359.867
lowerback 12.9721 0.71793 -1.02776
upperback 1.71561 0.775852 -0.475754
thorax -5.47504 0.39672 -0.0542887
lowerneck -14.8474 -8.04509 -13.7656
upperneck 32.5467 -12.1063 11.9785
head 15.6363 -5.39352 5.23343
rclavicle -3.2054e-015 7.55382e-015
rhumerus -38.023 -12.8601 -76.7661
rradius 38.0905
rwrist -0.754229
rhand -19.0832 7.52704
rfingers 7.12502
rthumb 7.22483 -22.3296
lclavicle -3.2054e-015 7.55382e-015
lhumerus -29.7411 -1.81318 89.1514
lradius 33.9365
lwrist -6.5249
lhand -21.2329 26.471
lfingers 7.12502
lthumb 5.14946 56.3884
rfemur -11.6556 3.98989 19.0637
rtibia 32.5662
rfoot -14.3325 1.76548
rtoes 0.55555
lfemur -13.7156 -5.52108 -19.9629
ltibia 39.4901
lfoot -15.4261 -11.2706
ltoes -12.5545
509
root 2.60543 17.8279 7.60003 -362.834 -3.35469 -359.799
lowerback 12.7681 0.788675 -1.00769
upperback 1.74644 0.877576 -0.440038
thorax -5.33063 0.446215 -0.0427134
lowerneck -14.7352 -8.023 -13.8665
upperneck 32.421 -12.0351 11.9654
head 15.5428 -5.38156 5.25547
rclavicle 2.03754e-015 -7.95139e-015
rhumerus -37.9849 -12.8541 -76.6509
rradius 38.2782
rwrist -0.906064
rhand -19.0736 7.39732
rfingers 7.12502
rthumb 7.23407 -22.459
lclavicle 2.03754e-015 -7.95139e-015
lhumerus -29.6783 -1.80476 89.5179
lradius 33.9572
lwrist -6.67387
lhand -21.8198 26.2541
lfingers 7.12502
lthumb 4.58274 56.1846
rfemur -11.9022 3.99865 19.151
rtibia 33.0729
rfoot -14.6947 2.01086
rtoes 0.288784
lfemur -13.8399 -4.31416 -20.8042
ltibia 39.182
lfoot -14.8735 -11.5234
ltoes -11.9905
510
root 2.56358 17.8093 7.63061 -362.883 -3.66004 -359.793
lowerback 12.62 0.83641 -0.987195
upperback 1.82252 0.950987 -0.355574
thorax -5.1702 0.482081 0.0246725
lowerneck -14.7553 -8.03062 -13.9319
upperneck 32.3495 -11.9936 11.9063
head 15.5053 -5.37796 5.24437
rclavicle 6.83322e-016 4.77083e-015
rhumerus -37.8109 -12.5633 -76.6399
rradius 38.3364
rwrist -1.45648
rhand -19.3816 7.44186
rfingers 7.12502
rthumb 6.93681 -22.4245
lclavicle 6.83322e-016 4.77083e-015
lhumerus -29.6498 -1.86723 89.892
lradius 34.1266
lwrist -6.90641
lhand -21.6443 26.8643
lfingers 7.12502
lthumb 4.75225 56.7911
rfemur -11.9919 3.83281 19.2945
rtibia 33.5303
rfoot -15.1129 2.33725
rtoes -0.256112
lfemur -13.8212 -3.23293 -21.5191
ltibia 38.8551
lfoot -13.9837 -11.8649
ltoes -9.51321
511
root 2.52179 17.7926 7.66203 -362.974 -3.9283 -359.9
lowerback 12.565 0.876343 -0.864122
upperback 1.8686 1.02516 -0.288807
thorax -5.09103 0.516536 0.0140327
lowerneck -14.8397 -8.03389 -13.8613
upperneck 32.4022 -12.0022 11.8635
head 15.5421 -5.37509 5.21191
rclavicle 3.00662e-015 -4.27387e-015
rhumerus -37.6796 -12.3336 -76.7109
rradius 38.3361
rwrist -2.09075
rhand -19.6497 7.98362
rfingers 7.12502
rthumb 6.67803 -21.8911
lclavicle 3.00662e-015 -4.27387e-015
lhumerus -29.7676 -2.10853 90.2072
lradius 34.4183
lwrist -7.08618
lhand -21.3352 27.5462
lfingers 7.12502
lthumb 5.05073 57.466
rfemur -11.994 3.63746 19.5551
rtibia 33.9391
rfoot -15.4573 2.73178
rtoes -0.279267
lfemur -13.6984 -2.27511 -22.0638
ltibia 38.5155
lfoot -13.3485 -12.0152
ltoes -7.16274
512
root 2.4755 17.7709 7.69213 -363.099 -4.15606 -360.039
lowerback 12.5178 0.906581 -0.771168
upperback 1.90168 1.08263 -0.210932
thorax -5.03043 0.543566 0.0346479
lowerneck -14.7026 -8.00376 -13.8051
upperneck 32.3837 -12.0004 11.8865
head 15.4974 -5.3704 5.21508
rclavicle 1.55301e-014 -4.57205e-015
rhumerus -37.6089 -12.2954 -76.6567
rradius 38.2296
rwrist -2.04138
rhand -19.4926 8.57805
rfingers 7.12502
rthumb 6.82965 -21.2918
lclavicle 1.55301e-014 -4.57205e-015
lhumerus -29.9418 -2.3946 90.5175
lradius 34.7028
lwrist -7.02746
lhand -21.4796 27.7682
lfingers 7.12502
lthumb 4.91129 57.6913
rfemur -11.9479 3.35779 19.8557
rtibia 34.3006
rfoot -15.7212 3.19638
rtoes 0.458289
lfemur -13.4791 -1.62254 -22.4877
ltibia 38.1498
lfoot -12.9253 -12.1086
ltoes -4.49372
513
root 2.42682 17.7493 7.71995 -363.187 -4.35144 -360.209
lowerback 12.442 0.910144 -0.749676
upperback 1.93669 1.09771 -0.0893064
thorax -4.95386 0.551325 0.148903
lowerneck -14.5843 -7.96004 -13.6598
upperneck 32.3319 -11.9461 11.7695
head 15.4107 -5.3483 5.14857
rclavicle 6.62201e-015 2.48481e-015
rhumerus -37.4289 -12.1184 -76.6285
rradius 38.0226
rwrist -1.68705
rhand -19.356 8.31088
rfingers 7.12502
rthumb 6.96147 -21.5547
lclavicle 6.62201e-015 2.48481e-015
lhumerus -30.0958 -2.58279 90.8164
lradius 34.9579
lwrist -6.92743
lhand -21.7114 27.6082
lfingers 7.12502
lthumb 4.6874 57.5364
rfemur -11.944 3.09003 20.1724
rtibia 34.6265
rfoot -15.9165 3.77693
rtoes 1.74741
lfemur -13.227 -1.2323 -22.7663
ltibia 37.8121
lfoot -12.5681 -12.009
ltoes -1.22899
514
root 2.37706 17.7348 7.74665 -363.244 -4.56576 -360.29
lowerback 12.3785 0.94539 -0.927541
upperback 1.92538 1.12956 0.0624246
thorax -4.93746 0.571159 0.403606
lowerneck -14.5281 -7.94909 -13.5673
upperneck 32.3372 -11.8989 11.5824
head 15.3661 -5.34177 5.06028
rclavicle -2.46617e-015 -4.87022e-015
rhumerus -37.2929 -11.6923 -76.6516
rradius 37.8649
rwrist -1.70579
rhand -19.5693 7.95127
rfingers 7.12502
rthumb 6.75563 -21.921
lclavicle -2.46617e-015 -4.87022e-015
lhumerus -30.3047 -2.62986 91.1549
lradius 35.1893
lwrist -7.02464
lhand -21.8011 27.6041
lfingers 7.12502
lthumb 4.60078 57.5341
rfemur -11.9627 2.83549 20.3819
rtibia 34.9049
rfoot -16.151 4.37872
rtoes 2.60749
lfemur -12.9897 -1.12109 -23.053
ltibia 37.5422
lfoot -12.3115 -10.9685
ltoes 1.15666
515
root 2.3293 17.7259 7.77384 -363.313 -4.81319 -360.365
lowerback 12.3459 0.986934 -1.11104
upperback 1.88313 1.16793 0.199564
thorax -4.97101 0.594506 0.644379
lowerneck -14.4192 -7.92248 -13.4945
upperneck 32.3704 -11.8733 11.5029
head 15.3381 -5.33645 5.02183
rclavicle -2.168e-015 4.87022e-015
rhumerus -37.2981 -11.257 -76.661
rradius 37.8731
rwrist -1.73217
rhand -19.4621 7.89654
rfingers 7.12502
rthumb 6.85912 -21.9723
lclavicle -2.168e-015 4.87022e-015
lhumerus -30.4621 -2.70436 91.4236
lradius 35.2918
lwrist -7.13593
lhand -21.8203 27.6104
lfingers 7.12502
lthumb 4.58227 57.5409
rfemur -11.9425 2.60328 20.578
rtibia 35.1569
rfoot -16.3417 4.88613
rtoes 3.03646
lfemur -12.7059 -1.11422 -23.2604
ltibia 37.331
lfoot -12.1376 -8.86646
ltoes 1.15788
516
root 2.28126 17.7192 7.7997 -363.324 -5.00642 -360.556
lowerback 12.3091 1.01879 -1.15376
upperback 1.81758 1.21138 0.320147
thorax -5.02394 0.618133 0.787469
lowerneck -14.2974 -7.86942 -13.3952
upperneck 32.448 -11.8713 11.5558
head 15.3423 -5.3228 5.03549
rclavicle -1.26601e-014 1.04362e-014
rhumerus -37.294 -10.9668 -76.7143
rradius 37.8299
rwrist -1.56913
rhand -19.2376 7.75452
rfingers 7.12502
rthumb 7.07585 -22.1072
lclavicle -1.26601e-014 1.04362e-014
lhumerus -30.665 -3.0833 91.6738
lradius 35.4557
lwrist -6.96974
lhand -21.842 27.4965
lfingers 7.12502
lthumb 4.56134 57.4274
rfemur -11.979 2.38697 20.9084
rtibia 35.4043
rfoot -16.4266 5.35862
rtoes 3.81937
lfemur -12.405 -1.30642 -23.2069
ltibia 37.1415
lfoot -11.904 -6.45415
ltoes 1.02356
517
root 2.23149 17.7137 7.82417 -363.342 -5.11259 -360.656
lowerback 12.2819 1.03273 -1.34539
upperback 1.73424 1.21052 0.425111
thorax -5.10278 0.622967 1.00528
lowerneck -14.1562 -7.85114 -13.3611
upperneck 32.5733 -11.9285 11.6524
head 15.3854 -5.33824 5.07091
rclavicle 1.60581e-014 7.25564e-015
rhumerus -37.3064 -10.6822 -76.7808
rradius 37.7349
rwrist -1.20291
rhand -18.9495 7.64911
rfingers 7.12502
rthumb 7.35387 -22.2031
lclavicle 1.60581e-014 7.25564e-015
lhumerus -31.0022 -3.51208 91.9586
lradius 35.7722
lwrist -6.64054
lhand -22.0792 27.3853
lfingers 7.12502
lthumb 4.33228 57.321
rfemur -12.0128 2.16449 21.1497
rtibia 35.6772
rfoot -16.5453 5.76615
rtoes 4.40361
lfemur -12.069 -1.49028 -23.1337
ltibia 36.9601
lfoot -12.0381 -4.64218
ltoes -0.27674
